<svg xmlns="http://www.w3.org/2000/svg" xmlns:xlink="http://www.w3.org/1999/xlink" width="2000" zoomAndPan="magnify" viewBox="0 0 1500 449.999984" height="600" preserveAspectRatio="xMidYMid meet" version="1.0"><defs><g/><clipPath id="4928e649c2"><path d="M 636.777344 45.035156 L 839.25 45.035156 L 839.25 224.9375 L 636.777344 224.9375 Z M 636.777344 45.035156 " clip-rule="nonzero"/></clipPath></defs><g fill="#ff5a5a" fill-opacity="1"><g transform="translate(-9.157395, 337.932095)"><g><path d="M 112.921875 -226.484375 L 25.890625 -226.484375 L 25.890625 0 L 74.734375 0 L 74.734375 -70.53125 L 112.921875 -70.53125 C 158.53125 -70.53125 192.828125 -103.859375 192.828125 -148.515625 C 192.828125 -193.15625 158.21875 -226.484375 112.921875 -226.484375 Z M 110.65625 -115.828125 L 74.734375 -115.828125 L 74.734375 -180.859375 L 110.65625 -180.859375 C 130.0625 -180.859375 143.328125 -167.28125 143.328125 -148.515625 C 143.328125 -129.75 130.0625 -115.828125 110.65625 -115.828125 Z M 110.65625 -115.828125 "/></g></g></g><g fill="#ff5a5a" fill-opacity="1"><g transform="translate(173.642252, 337.932095)"><g><path d="M 192.1875 -87.6875 C 192.1875 -138.15625 155.296875 -179.5625 101.59375 -179.5625 C 49.828125 -179.5625 11 -139.765625 11 -87.359375 C 11 -34.9375 50.15625 5.171875 101.59375 5.171875 C 142.359375 5.171875 175.6875 -19.09375 188.296875 -57.265625 L 138.796875 -57.265625 C 131.6875 -44.65625 118.09375 -36.890625 101.59375 -36.890625 C 78.625 -36.890625 63.09375 -50.15625 58.890625 -74.09375 L 191.21875 -74.09375 C 191.859375 -78.625 192.1875 -83.15625 192.1875 -87.6875 Z M 101.59375 -139.125 C 122.953125 -139.125 138.15625 -127.484375 144.953125 -106.125 L 60.1875 -106.125 C 65.6875 -126.828125 80.5625 -139.125 101.59375 -139.125 Z M 101.59375 -139.125 "/></g></g></g><g fill="#ff5a5a" fill-opacity="1"><g transform="translate(358.383125, 337.932095)"><g><path d="M 108.0625 -42.0625 C 90.59375 -42.0625 80.890625 -51.765625 80.890625 -68.59375 L 80.890625 -136.53125 L 128.453125 -136.53125 L 128.453125 -174.71875 L 80.234375 -174.71875 L 80.234375 -220.015625 L 71.1875 -220.015625 L 2.265625 -146.890625 L 2.265625 -136.53125 L 33.65625 -136.53125 L 33.65625 -62.125 C 33.65625 -23.625 57.265625 0 95.765625 0 L 129.421875 0 L 129.421875 -42.0625 Z M 108.0625 -42.0625 "/></g></g></g><g clip-path="url(#4928e649c2)"><path fill="#ff5a5a" d="M 735.730469 75.308594 C 712.339844 31.128906 654.917969 39.433594 636.941406 73.691406 C 664.058594 51.265625 717.066406 49.339844 735.675781 84.132812 C 765.890625 21.847656 886.058594 83.917969 785.164062 165.9375 C 751.5625 193.253906 749.855469 195.644531 735.675781 211.5625 C 727.957031 202.890625 714.757812 196.753906 698.914062 188.558594 C 718.808594 205.398438 722.828125 210.296875 735.730469 224.9375 C 752.203125 206.238281 754.1875 203.4375 793.234375 171.363281 C 910.484375 75.054688 770.839844 2.175781 735.730469 75.308594 " fill-opacity="1" fill-rule="nonzero"/></g><path fill="#ff5a5a" d="M 693.433594 150.980469 C 702.1875 155.195312 700.929688 167.617188 691.589844 173.726562 C 682.25 179.835938 675.550781 174.550781 672.234375 174.121094 C 669.761719 173.800781 661.363281 173.644531 653.773438 177.820312 C 645.644531 182.289062 629.484375 179.28125 627.839844 167.796875 C 626.097656 155.652344 635.941406 153.492188 641.8125 142.339844 C 648.261719 130.082031 647.734375 120.128906 658.902344 118.828125 C 671.011719 117.414062 673.011719 141.152344 693.433594 150.980469 " fill-opacity="1" fill-rule="nonzero"/><path fill="#ff5a5a" d="M 681.800781 99.949219 C 681.667969 109.351562 676.941406 116.910156 671.234375 116.832031 C 665.527344 116.753906 661.007812 109.066406 661.136719 99.664062 C 661.269531 90.261719 665.996094 82.703125 671.707031 82.785156 C 677.410156 82.863281 681.929688 90.550781 681.800781 99.949219 " fill-opacity="1" fill-rule="nonzero"/><path fill="#ff5a5a" d="M 707.085938 124.515625 C 706.96875 132.996094 701.378906 139.796875 694.597656 139.703125 C 687.820312 139.609375 682.417969 132.65625 682.535156 124.175781 C 682.652344 115.691406 688.246094 108.890625 695.023438 108.988281 C 701.800781 109.078125 707.203125 116.03125 707.085938 124.515625 " fill-opacity="1" fill-rule="nonzero"/><path fill="#ff5a5a" d="M 636.425781 127.789062 C 639.339844 135.757812 636.257812 144.203125 629.546875 146.65625 C 622.839844 149.105469 615.042969 144.632812 612.132812 136.664062 C 609.21875 128.695312 612.300781 120.25 619.007812 117.796875 C 625.71875 115.347656 633.515625 119.820312 636.425781 127.789062 " fill-opacity="1" fill-rule="nonzero"/><path fill="#ff5a5a" d="M 651.078125 101.472656 C 653.605469 110.410156 651.253906 118.902344 645.832031 120.433594 C 640.410156 121.960938 633.96875 115.957031 631.445312 107.015625 C 628.921875 98.074219 631.269531 89.585938 636.695312 88.054688 C 642.113281 86.523438 648.554688 92.53125 651.078125 101.472656 " fill-opacity="1" fill-rule="nonzero"/><g fill="#ffffff" fill-opacity="1"><g transform="translate(501.503244, 337.932095)"><g><path d="M 295.078125 0 L 257.546875 -226.484375 L 229.390625 -226.484375 L 154.328125 -60.1875 L 79.59375 -226.484375 L 52.09375 -226.484375 L 13.90625 0 L 43.03125 0 L 72.796875 -176.65625 L 150.765625 -5.5 L 158.53125 -5.5 L 236.515625 -176.65625 L 265.953125 0 Z M 295.078125 0 "/></g></g></g><g fill="#ffffff" fill-opacity="1"><g transform="translate(792.690393, 337.932095)"><g><path d="M 176.65625 -174.71875 L 173.09375 -147.859375 C 156.921875 -166.953125 132.65625 -178.28125 104.1875 -178.28125 C 52.421875 -178.28125 13.59375 -139.453125 13.59375 -87.03125 C 13.59375 -35.265625 52.421875 3.875 104.1875 3.875 C 132.65625 3.875 156.59375 -7.4375 172.78125 -26.203125 L 175.6875 0 L 198.328125 0 L 198.328125 -174.71875 Z M 106.125 -22.640625 C 69.234375 -22.640625 41.734375 -50.46875 41.734375 -87.359375 C 41.734375 -123.921875 69.234375 -151.75 106.125 -151.75 C 143.328125 -151.75 170.1875 -124.234375 170.1875 -87.359375 C 170.1875 -50.15625 143.328125 -22.640625 106.125 -22.640625 Z M 106.125 -22.640625 "/></g></g></g><g fill="#ffffff" fill-opacity="1"><g transform="translate(1000.402951, 337.932095)"><g><path d="M 99.96875 -25.234375 C 76.03125 -25.234375 63.09375 -38.171875 63.09375 -61.796875 L 63.09375 -149.796875 L 118.09375 -149.796875 L 118.09375 -174.71875 L 63.09375 -174.71875 L 63.09375 -211.59375 L 58.890625 -211.59375 L 4.859375 -154.65625 L 4.859375 -149.796875 L 35.59375 -149.796875 L 35.59375 -60.828125 C 35.59375 -22.96875 58.890625 0 96.421875 0 L 119.0625 0 L 119.0625 -25.234375 Z M 99.96875 -25.234375 "/></g></g></g><g fill="#ffffff" fill-opacity="1"><g transform="translate(1110.08138, 337.932095)"><g><path d="M 104.5 3.875 C 145.921875 3.875 179.25 -21.03125 189.921875 -59.53125 L 162.09375 -59.53125 C 151.421875 -36.234375 130.0625 -22.640625 104.5 -22.640625 C 68.921875 -22.640625 41.734375 -50.796875 41.734375 -87.359375 C 41.734375 -123.59375 68.59375 -151.75 104.5 -151.75 C 130.390625 -151.75 152.0625 -138.15625 162.09375 -115.5 L 189.59375 -115.5 C 178.921875 -153.6875 146.25 -178.28125 104.5 -178.28125 C 52.734375 -178.28125 13.59375 -139.453125 13.59375 -87.359375 C 13.59375 -35.265625 52.734375 3.875 104.5 3.875 Z M 104.5 3.875 "/></g></g></g><g fill="#ffffff" fill-opacity="1"><g transform="translate(1292.233883, 337.932095)"><g><path d="M 114.859375 -178.28125 C 89.625 -178.28125 68.59375 -167.921875 55 -150.765625 L 55 -236.84375 L 27.5 -236.84375 L 27.5 0 L 55 0 L 55 -95.125 C 55 -127.796875 77.96875 -153.359375 108.0625 -153.359375 C 138.15625 -153.359375 154.984375 -133.296875 154.984375 -98.03125 L 154.984375 0 L 182.484375 0 L 182.484375 -104.5 C 182.484375 -149.796875 156.59375 -178.28125 114.859375 -178.28125 Z M 114.859375 -178.28125 "/></g></g></g></svg>